<svg width="15" height="15" viewBox="0 0 15 15" fill="none" xmlns="http://www.w3.org/2000/svg">
<path d="M13.125 5.625V3.75C13.125 3.41848 12.9933 3.10054 12.7589 2.86612C12.5245 2.6317 12.2065 2.5 11.875 2.5H2.5C2.16848 2.5 1.85054 2.6317 1.61612 2.86612C1.3817 3.10054 1.25 3.41848 1.25 3.75V10C1.25 10.6875 1.8125 11.25 2.5 11.25H5" stroke="#D3D3D3" stroke-linecap="round" stroke-linejoin="round"/>
<path d="M12.5 8.125H8.75C8.05964 8.125 7.5 8.68464 7.5 9.375V11.25C7.5 11.9404 8.05964 12.5 8.75 12.5H12.5C13.1904 12.5 13.75 11.9404 13.75 11.25V9.375C13.75 8.68464 13.1904 8.125 12.5 8.125Z" stroke="#D3D3D3" stroke-linecap="round" stroke-linejoin="round"/>
</svg>
